<?xml version="1.0" encoding="UTF-8"?>
<svg width="100" height="100" viewBox="0 0 100 100" fill="none" xmlns="http://www.w3.org/2000/svg">
  <path d="M50 0C22.4 0 0 22.4 0 50s22.4 50 50 50 50-22.4 50-50S77.6 0 50 0zm0 90C27.9 90 10 72.1 10 50S27.9 10 50 10s40 17.9 40 40-17.9 40-40 40z" fill="#007AFF"/>
  <path d="M50 20c-16.6 0-30 13.4-30 30s13.4 30 30 30 30-13.4 30-30-13.4-30-30-30zm0 50c-11 0-20-9-20-20s9-20 20-20 20 9 20 20-9 20-20 20z" fill="#007AFF"/>
  <path d="M50 40c-5.5 0-10 4.5-10 10s4.5 10 10 10 10-4.5 10-10-4.5-10-10-10zm0 15c-2.8 0-5-2.2-5-5s2.2-5 5-5 5 2.2 5 5-2.2 5-5 5z" fill="#007AFF"/>
</svg> 